<svg width="101" height="13" viewBox="0 0 101 13" fill="none" xmlns="http://www.w3.org/2000/svg">
<path d="M0.617154 12.1743V0.623168H2.05279V10.7881H7.72933V12.1743H0.617154ZM9.83483 12.1743V0.623168H16.6995V1.9763H11.2705V5.52414H14.8513V6.87727H11.2705V10.8046H17.0625V12.1743H9.83483ZM19.0343 12.1743L23.1267 0.623168H24.4633L28.5557 12.1743H27.0871L26.097 9.3525H21.5096L20.536 12.1743H19.0343ZM21.9386 8.08188H25.6515L24.1663 3.80797C24.1278 3.69796 24.0838 3.57145 24.0343 3.42844C23.9903 3.27992 23.9463 3.13691 23.9023 2.99939C23.8583 2.85638 23.8253 2.73537 23.8033 2.63636C23.7758 2.73537 23.74 2.85638 23.696 2.99939C23.6575 3.13691 23.6135 3.27992 23.564 3.42844C23.52 3.57145 23.4788 3.69796 23.4402 3.80797L21.9386 8.08188ZM30.6874 12.1743V0.623168H35.2418C36.1659 0.623168 36.892 0.782684 37.42 1.10171C37.9536 1.42074 38.3304 1.83328 38.5504 2.33933C38.7759 2.83988 38.8887 3.36243 38.8887 3.90698C38.8887 4.36353 38.7979 4.81457 38.6164 5.26011C38.4404 5.70015 38.1544 6.08794 37.7583 6.42347C37.3623 6.759 36.8425 6.99278 36.1989 7.12479L38.6742 12.1743H37.057L34.6808 7.2238H32.123V12.1743H30.6874ZM32.123 5.88717H35.2748C35.8139 5.88717 36.2402 5.79091 36.5537 5.59839C36.8727 5.40587 37.0983 5.1611 37.2303 4.86407C37.3678 4.56704 37.4365 4.25902 37.4365 3.93999C37.4365 3.65396 37.3733 3.35968 37.2468 3.05715C37.1258 2.74912 36.9085 2.4906 36.595 2.28158C36.2814 2.06706 35.8414 1.9598 35.2748 1.9598H32.123V5.88717ZM41.6616 12.1743V0.623168H43.1137L48.2292 8.84095C48.3117 8.97847 48.3915 9.11598 48.4685 9.25349C48.5455 9.39101 48.6253 9.53952 48.7078 9.69903C48.7023 9.55602 48.694 9.41301 48.683 9.26999C48.6775 9.12698 48.6748 8.98947 48.6748 8.85745V0.623168H50.1104V12.1743H48.7243L43.5263 3.92348C43.4548 3.79697 43.3778 3.66496 43.2953 3.52745C43.2182 3.38993 43.1412 3.25242 43.0642 3.11491C43.0752 3.23592 43.0835 3.36793 43.089 3.51094C43.0945 3.65396 43.0972 3.79147 43.0972 3.92348V12.1743H41.6616ZM62.245 12.3723L59.1097 5.07859C59.0272 4.88608 58.9392 4.67706 58.8457 4.45153C58.7577 4.22051 58.6806 4.01149 58.6146 3.82447C58.6311 3.97299 58.6421 4.17101 58.6476 4.41853C58.6586 4.66055 58.6641 4.88057 58.6641 5.07859V12.1743H57.2285V0.623168H58.5816L61.948 8.39541C61.9975 8.51642 62.047 8.64293 62.0965 8.77495C62.146 8.90696 62.1955 9.03897 62.245 9.17098C62.289 9.04447 62.3357 8.91796 62.3853 8.79145C62.4348 8.65944 62.487 8.52742 62.542 8.39541L65.8918 0.623168H67.2615V12.1743H65.8258V5.07859C65.8258 4.88057 65.8286 4.6578 65.8341 4.41028C65.8451 4.15726 65.8533 3.95649 65.8588 3.80797C65.7928 3.99499 65.7103 4.20951 65.6113 4.45153C65.5178 4.69356 65.4298 4.91358 65.3473 5.1116L62.245 12.3723ZM74.8325 12.3723C73.9249 12.3723 73.1576 12.199 72.5305 11.8525C71.9034 11.5005 71.4001 11.0357 71.0206 10.4581C70.6411 9.87505 70.3633 9.23149 70.1873 8.52742C70.0168 7.82336 69.9315 7.11379 69.9315 6.39872C69.9315 5.68365 70.0168 4.97408 70.1873 4.27002C70.3633 3.56595 70.6411 2.92514 71.0206 2.34758C71.4001 1.76453 71.9034 1.29973 72.5305 0.9532C73.1576 0.601167 73.9249 0.42515 74.8325 0.42515C75.7456 0.42515 76.5156 0.601167 77.1427 0.9532C77.7697 1.29973 78.273 1.76453 78.6526 2.34758C79.0321 2.92514 79.3071 3.56595 79.4777 4.27002C79.6482 4.97408 79.7334 5.68365 79.7334 6.39872C79.7334 7.11379 79.6482 7.82336 79.4777 8.52742C79.3071 9.23149 79.0321 9.87505 78.6526 10.4581C78.273 11.0357 77.7697 11.5005 77.1427 11.8525C76.5156 12.199 75.7456 12.3723 74.8325 12.3723ZM74.8325 11.0192C75.4705 11.0192 76.0068 10.8789 76.4414 10.5984C76.8759 10.3178 77.2252 9.94931 77.4892 9.49276C77.7587 9.03072 77.9513 8.53017 78.0668 7.99112C78.1878 7.44657 78.2483 6.91577 78.2483 6.39872C78.2483 5.83217 78.1878 5.27661 78.0668 4.73206C77.9513 4.18201 77.7587 3.68421 77.4892 3.23867C77.2252 2.78762 76.8759 2.43009 76.4414 2.16607C76.0068 1.89654 75.4705 1.76178 74.8325 1.76178C74.1999 1.76178 73.6664 1.90204 73.2318 2.18257C72.7973 2.46309 72.4452 2.83438 72.1757 3.29642C71.9117 3.75297 71.7192 4.25352 71.5982 4.79807C71.4771 5.34262 71.4166 5.87617 71.4166 6.39872C71.4166 6.96527 71.4771 7.52358 71.5982 8.07363C71.7192 8.61818 71.9117 9.11323 72.1757 9.55877C72.4452 10.0043 72.7973 10.3591 73.2318 10.6231C73.6664 10.8871 74.1999 11.0192 74.8325 11.0192ZM82.3999 12.1743V0.623168H86.9543C87.8784 0.623168 88.6044 0.782684 89.1325 1.10171C89.666 1.42074 90.0428 1.83328 90.2629 2.33933C90.4884 2.83988 90.6011 3.36243 90.6011 3.90698C90.6011 4.36353 90.5104 4.81457 90.3289 5.26011C90.1528 5.70015 89.8668 6.08794 89.4708 6.42347C89.0747 6.759 88.5549 6.99278 87.9114 7.12479L90.3866 12.1743H88.7695L86.3932 7.2238H83.8355V12.1743H82.3999ZM83.8355 5.88717H86.9873C87.5263 5.88717 87.9526 5.79091 88.2662 5.59839C88.5852 5.40587 88.8107 5.1611 88.9427 4.86407C89.0802 4.56704 89.149 4.25902 89.149 3.93999C89.149 3.65396 89.0857 3.35968 88.9592 3.05715C88.8382 2.74912 88.6209 2.4906 88.3074 2.28158C87.9939 2.06706 87.5538 1.9598 86.9873 1.9598H83.8355V5.88717ZM93.374 12.1743V0.623168H100.239V1.9763H94.8097V5.52414H98.3905V6.87727H94.8097V10.8046H100.602V12.1743H93.374Z" fill="black"/>
</svg>
