<svg width="69" height="13" viewBox="0 0 69 13" fill="none" xmlns="http://www.w3.org/2000/svg">
<path d="M5.43421 12.7952C4.55962 12.7952 3.81155 12.6302 3.18999 12.3001C2.56843 11.9646 2.06239 11.5136 1.67185 10.947C1.28131 10.375 0.992534 9.73414 0.805516 9.02458C0.623999 8.30951 0.53324 7.57519 0.53324 6.82162C0.53324 6.07355 0.629499 5.34473 0.822017 4.63516C1.02004 3.92559 1.31706 3.28753 1.7131 2.72098C2.11464 2.14892 2.62344 1.69513 3.2395 1.3596C3.85556 1.01856 4.58713 0.848047 5.43421 0.848047C6.14928 0.848047 6.74333 0.944306 7.21638 1.13682C7.69492 1.32934 8.08821 1.58237 8.39624 1.8959C8.70427 2.20393 8.96554 2.53121 9.18006 2.87774L7.89294 3.62031C7.62892 3.24078 7.31264 2.91074 6.9441 2.63022C6.57557 2.34419 6.07227 2.20118 5.43421 2.20118C4.79065 2.20118 4.24884 2.34144 3.8088 2.62197C3.37426 2.89699 3.02498 3.26278 2.76095 3.71932C2.49693 4.17586 2.30716 4.67641 2.19165 5.22096C2.07614 5.76002 2.01838 6.29357 2.01838 6.82162C2.01838 7.41567 2.08439 7.98773 2.2164 8.53778C2.34841 9.08783 2.55193 9.58013 2.82696 10.0147C3.10198 10.4492 3.45402 10.793 3.88306 11.046C4.3176 11.299 4.83465 11.4256 5.43421 11.4256C5.95676 11.4256 6.41055 11.3128 6.79559 11.0873C7.18612 10.8618 7.48865 10.551 7.70317 10.1549C7.91769 9.7534 8.02495 9.29135 8.02495 8.7688V8.30676H5.92925V6.98663H9.5266V8.37276C9.5266 9.32986 9.34508 10.1384 8.98205 10.7985C8.62451 11.4531 8.13497 11.9509 7.51341 12.2919C6.89735 12.6274 6.20428 12.7952 5.43421 12.7952ZM16.7952 12.7952C15.8876 12.7952 15.1202 12.6219 14.4932 12.2754C13.8661 11.9234 13.3628 11.4586 12.9833 10.881C12.6038 10.2979 12.326 9.65439 12.15 8.95032C11.9794 8.24625 11.8942 7.53668 11.8942 6.82162C11.8942 6.10655 11.9794 5.39698 12.15 4.69291C12.326 3.98885 12.6038 3.34804 12.9833 2.77048C13.3628 2.18742 13.8661 1.72263 14.4932 1.3761C15.1202 1.02406 15.8876 0.848047 16.7952 0.848047C17.7082 0.848047 18.4783 1.02406 19.1054 1.3761C19.7324 1.72263 20.2357 2.18742 20.6153 2.77048C20.9948 3.34804 21.2698 3.98885 21.4403 4.69291C21.6109 5.39698 21.6961 6.10655 21.6961 6.82162C21.6961 7.53668 21.6109 8.24625 21.4403 8.95032C21.2698 9.65439 20.9948 10.2979 20.6153 10.881C20.2357 11.4586 19.7324 11.9234 19.1054 12.2754C18.4783 12.6219 17.7082 12.7952 16.7952 12.7952ZM16.7952 11.4421C17.4332 11.4421 17.9695 11.3018 18.4041 11.0213C18.8386 10.7407 19.1879 10.3722 19.4519 9.91566C19.7214 9.45362 19.914 8.95307 20.0295 8.41402C20.1505 7.86947 20.211 7.33867 20.211 6.82162C20.211 6.25506 20.1505 5.69951 20.0295 5.15496C19.914 4.60491 19.7214 4.10711 19.4519 3.66157C19.1879 3.21052 18.8386 2.85299 18.4041 2.58896C17.9695 2.31944 17.4332 2.18467 16.7952 2.18467C16.1626 2.18467 15.629 2.32494 15.1945 2.60546C14.76 2.88599 14.4079 3.25728 14.1384 3.71932C13.8744 4.17586 13.6819 4.67641 13.5608 5.22096C13.4398 5.76552 13.3793 6.29907 13.3793 6.82162C13.3793 7.38817 13.4398 7.94647 13.5608 8.49653C13.6819 9.04108 13.8744 9.53613 14.1384 9.98167C14.4079 10.4272 14.76 10.782 15.1945 11.046C15.629 11.31 16.1626 11.4421 16.7952 11.4421ZM28.3268 12.5972V1.04607H32.4192C33.3323 1.04607 34.0501 1.19458 34.5726 1.49161C35.0952 1.78314 35.4665 2.16267 35.6865 2.63022C35.9065 3.09776 36.0165 3.58731 36.0165 4.09886C36.0165 4.62691 35.868 5.1027 35.571 5.52624C35.274 5.94978 34.8559 6.27707 34.3169 6.50809C34.7624 6.6456 35.1419 6.84912 35.4555 7.11865C35.7745 7.38267 36.0165 7.69895 36.1815 8.06749C36.3466 8.43602 36.4291 8.84031 36.4291 9.28035C36.4291 9.67089 36.3658 10.0614 36.2393 10.452C36.1128 10.8425 35.9038 11.2 35.6122 11.5246C35.3262 11.8491 34.9412 12.1104 34.4571 12.3084C33.9786 12.5009 33.3873 12.5972 32.6832 12.5972H28.3268ZM29.7624 11.277H32.8482C33.4148 11.277 33.8548 11.1835 34.1683 10.9965C34.4819 10.8095 34.6991 10.5702 34.8202 10.2787C34.9467 9.98717 35.0099 9.68739 35.0099 9.37936C35.0099 9.01083 34.9357 8.66429 34.7872 8.33976C34.6386 8.01523 34.3691 7.75396 33.9786 7.55594C33.5935 7.35242 33.0407 7.25066 32.3202 7.25066H29.7624V11.277ZM29.7624 5.94703H32.1387C32.9582 5.94703 33.5715 5.77927 33.9786 5.44374C34.3911 5.1082 34.5974 4.66541 34.5974 4.11536C34.5974 3.83483 34.5424 3.55981 34.4324 3.29028C34.3279 3.01525 34.1243 2.78973 33.8218 2.61372C33.5193 2.4377 33.0792 2.34969 32.5017 2.34969H29.7624V5.94703ZM37.8808 12.5972L41.9732 1.04607H43.3098L47.4022 12.5972H45.9336L44.9435 9.7754H40.3561L39.3825 12.5972H37.8808ZM40.7851 8.50478H44.4979L43.0128 4.23087C42.9743 4.12086 42.9303 3.99435 42.8808 3.85133C42.8368 3.70282 42.7928 3.55981 42.7488 3.42229C42.7048 3.27928 42.6718 3.15827 42.6498 3.05926C42.6223 3.15827 42.5865 3.27928 42.5425 3.42229C42.504 3.55981 42.46 3.70282 42.4105 3.85133C42.3665 3.99435 42.3252 4.12086 42.2867 4.23087L40.7851 8.50478ZM53.4053 12.7952C52.5307 12.7952 51.7882 12.6247 51.1776 12.2836C50.567 11.9426 50.0747 11.4861 49.7007 10.914C49.3267 10.3365 49.0516 9.69289 48.8756 8.98332C48.7051 8.27376 48.6199 7.55319 48.6199 6.82162C48.6199 6.09555 48.7079 5.38048 48.8839 4.67641C49.0654 3.96684 49.3459 3.32328 49.7255 2.74573C50.105 2.16817 50.5973 1.70888 51.2024 1.36785C51.8129 1.02131 52.5472 0.848047 53.4053 0.848047C54.1149 0.848047 54.7144 0.949807 55.204 1.15333C55.699 1.35685 56.1006 1.61812 56.4086 1.93715C56.7221 2.25068 56.9642 2.58071 57.1347 2.92725L55.8475 3.58731C55.666 3.31778 55.468 3.07851 55.2535 2.86949C55.039 2.65497 54.7832 2.4872 54.4862 2.36619C54.1891 2.24518 53.8289 2.18467 53.4053 2.18467C52.7893 2.18467 52.2695 2.32494 51.8459 2.60546C51.4224 2.88599 51.0813 3.25453 50.8228 3.71107C50.5698 4.16761 50.3855 4.66816 50.27 5.21271C50.16 5.75727 50.105 6.29357 50.105 6.82162C50.105 7.39367 50.1683 7.95473 50.2948 8.50478C50.4213 9.05483 50.6193 9.55263 50.8888 9.99817C51.1583 10.4382 51.4994 10.7902 51.9119 11.0543C52.33 11.3128 52.8278 11.4421 53.4053 11.4421C54.0434 11.4421 54.5549 11.3073 54.94 11.0378C55.325 10.7627 55.6495 10.408 55.9136 9.97342L57.2337 10.4685C57.0357 10.8975 56.7661 11.288 56.4251 11.6401C56.0841 11.9921 55.6633 12.2726 55.1627 12.4817C54.6677 12.6907 54.0819 12.7952 53.4053 12.7952ZM59.654 12.5972V1.04607H61.0896V6.70611L65.5946 1.04607H67.2117L64.0269 5.03945L68.1523 12.5972H66.4856L63.0533 6.24406L61.0896 8.65329V12.5972H59.654Z" fill="black"/>
</svg>
